
<svg xmlns="http://www.w3.org/2000/svg"  viewBox="0 0 100 100" width="100px" height="100px"><path fill="#c7ede6" d="M87.215,56.71C88.35,54.555,89,52.105,89,49.5c0-6.621-4.159-12.257-10.001-14.478 C78.999,35.015,79,35.008,79,35c0-11.598-9.402-21-21-21c-9.784,0-17.981,6.701-20.313,15.757C36.211,29.272,34.638,29,33,29 c-7.692,0-14.023,5.793-14.89,13.252C12.906,43.353,9,47.969,9,53.5C9,59.851,14.149,65,20.5,65c0.177,0,0.352-0.012,0.526-0.022 C21.022,65.153,21,65.324,21,65.5C21,76.822,30.178,86,41.5,86c6.437,0,12.175-2.972,15.934-7.614C59.612,80.611,62.64,82,66,82 c4.65,0,8.674-2.65,10.666-6.518C77.718,75.817,78.837,76,80,76c6.075,0,11-4.925,11-11C91,61.689,89.53,58.727,87.215,56.71z"/><path fill="#fdfcef" d="M75.875,31.5c0,0,3.64,0,6.125,0s4.5-2.015,4.5-4.5c0-2.333-1.782-4.229-4.055-4.455 C82.467,22.364,82.5,22.187,82.5,22c0-2.485-2.015-4.5-4.5-4.5c-1.438,0-2.703,0.686-3.527,1.736 C74.333,16.6,72.171,14.5,69.5,14.5c-2.761,0-5,2.239-5,5c0,0.446,0.077,0.87,0.187,1.282C64.045,20.005,63.086,19.5,62,19.5 c-1.781,0-3.234,1.335-3.455,3.055C58.364,22.533,58.187,22.5,58,22.5c-2.485,0-4.5,2.015-4.5,4.5s2.015,4.5,4.5,4.5s9.5,0,9.5,0 h5.375V32h3V31.5z"/><path fill="#472b29" d="M69.5,14c-3.033,0-5.5,2.467-5.5,5.5c0,0.016,0,0.031,0,0.047C63.398,19.192,62.71,19,62,19 c-1.831,0-3.411,1.261-3.858,3.005C58.095,22.002,58.048,22,58,22c-2.757,0-5,2.243-5,5s2.243,5,5,5h14.875 c0.276,0,0.5-0.224,0.5-0.5s-0.224-0.5-0.5-0.5H58c-2.206,0-4-1.794-4-4s1.794-4,4-4c0.117,0,0.23,0.017,0.343,0.032l0.141,0.019 c0.021,0.003,0.041,0.004,0.062,0.004c0.246,0,0.462-0.185,0.495-0.437C59.232,21.125,60.504,20,62,20 c0.885,0,1.723,0.401,2.301,1.1c0.098,0.118,0.241,0.182,0.386,0.182c0.078,0,0.156-0.018,0.228-0.056 c0.209-0.107,0.314-0.346,0.254-0.573C65.054,20.218,65,19.852,65,19.5c0-2.481,2.019-4.5,4.5-4.5 c2.381,0,4.347,1.872,4.474,4.263c0.011,0.208,0.15,0.387,0.349,0.45c0.05,0.016,0.101,0.024,0.152,0.024 c0.15,0,0.296-0.069,0.392-0.192C75.638,18.563,76.779,18,78,18c2.206,0,4,1.794,4,4c0,0.117-0.017,0.23-0.032,0.343l-0.019,0.141 c-0.016,0.134,0.022,0.268,0.106,0.373c0.084,0.105,0.207,0.172,0.34,0.185C84.451,23.247,86,24.949,86,27c0,2.206-1.794,4-4,4 h-6.125c-0.276,0-0.5,0.224-0.5,0.5s0.224,0.5,0.5,0.5H82c2.757,0,5-2.243,5-5c0-2.397-1.689-4.413-4.003-4.877 C82.999,22.082,83,22.041,83,22c0-2.757-2.243-5-5-5c-1.176,0-2.293,0.416-3.183,1.164C74.219,15.76,72.055,14,69.5,14L69.5,14z"/><path fill="#472b29" d="M68,21c-1.403,0-2.609,0.999-2.913,2.341C64.72,23.119,64.301,23,63.875,23 c-1.202,0-2.198,0.897-2.353,2.068C61.319,25.022,61.126,25,60.937,25c-1.529,0-2.811,1.2-2.918,2.732 C58.01,27.87,58.114,27.99,58.251,28c0.006,0,0.012,0,0.018,0c0.13,0,0.24-0.101,0.249-0.232c0.089-1.271,1.151-2.268,2.419-2.268 c0.229,0,0.47,0.042,0.738,0.127c0.022,0.007,0.045,0.01,0.067,0.01c0.055,0,0.11-0.02,0.156-0.054 C61.962,25.537,62,25.455,62,25.375c0-1.034,0.841-1.875,1.875-1.875c0.447,0,0.885,0.168,1.231,0.473 c0.047,0.041,0.106,0.063,0.165,0.063c0.032,0,0.063-0.006,0.093-0.019c0.088-0.035,0.148-0.117,0.155-0.212 C65.623,22.512,66.712,21.5,68,21.5c0.208,0,0.425,0.034,0.682,0.107c0.023,0.007,0.047,0.01,0.07,0.01 c0.109,0,0.207-0.073,0.239-0.182c0.038-0.133-0.039-0.271-0.172-0.309C68.517,21.04,68.256,21,68,21L68,21z"/><path fill="#472b29" d="M81.883,22.5c-1.326,0-2.508,0.897-2.874,2.182c-0.038,0.133,0.039,0.271,0.172,0.309 C79.205,24.997,79.228,25,79.25,25c0.109,0,0.209-0.072,0.24-0.182C79.795,23.748,80.779,23,81.883,23 c0.117,0,0.23,0.014,0.342,0.029c0.012,0.002,0.023,0.003,0.035,0.003c0.121,0,0.229-0.092,0.246-0.217 c0.019-0.137-0.077-0.263-0.214-0.281C82.158,22.516,82.022,22.5,81.883,22.5L81.883,22.5z"/><path fill="#fff" d="M16.405,51H6.5C6.224,51,6,50.776,6,50.5S6.224,50,6.5,50h9.905c0.276,0,0.5,0.224,0.5,0.5 S16.682,51,16.405,51z"/><path fill="#fff" d="M19.5,51h-1c-0.276,0-0.5-0.224-0.5-0.5s0.224-0.5,0.5-0.5h1c0.276,0,0.5,0.224,0.5,0.5 S19.777,51,19.5,51z"/><path fill="#fff" d="M24.491,53H15.5c-0.276,0-0.5-0.224-0.5-0.5s0.224-0.5,0.5-0.5h8.991c0.276,0,0.5,0.224,0.5,0.5 S24.767,53,24.491,53z"/><path fill="#fff" d="M13.5,53h-1c-0.276,0-0.5-0.224-0.5-0.5s0.224-0.5,0.5-0.5h1c0.276,0,0.5,0.224,0.5,0.5 S13.777,53,13.5,53z"/><path fill="#fff" d="M10.5,53h-2C8.224,53,8,52.776,8,52.5S8.224,52,8.5,52h2c0.276,0,0.5,0.224,0.5,0.5 S10.777,53,10.5,53z"/><path fill="#fff" d="M16.5,55h-2c-0.276,0-0.5-0.224-0.5-0.5s0.224-0.5,0.5-0.5h2c0.276,0,0.5,0.224,0.5,0.5 S16.776,55,16.5,55z"/><path fill="#fff" d="M19.5,46c-0.177,0-0.823,0-1,0c-0.276,0-0.5,0.224-0.5,0.5c0,0.276,0.224,0.5,0.5,0.5 c0.177,0,0.823,0,1,0c0.276,0,0.5-0.224,0.5-0.5C20,46.224,19.776,46,19.5,46z"/><path fill="#fff" d="M19.5,48c-0.177,0-4.823,0-5,0c-0.276,0-0.5,0.224-0.5,0.5c0,0.276,0.224,0.5,0.5,0.5 c0.177,0,4.823,0,5,0c0.276,0,0.5-0.224,0.5-0.5C20,48.224,19.776,48,19.5,48z"/><path fill="#fff" d="M24.5,50c-0.177,0-2.823,0-3,0c-0.276,0-0.5,0.224-0.5,0.5c0,0.276,0.224,0.5,0.5,0.5 c0.177,0,2.823,0,3,0c0.276,0,0.5-0.224,0.5-0.5C25,50.224,24.776,50,24.5,50z"/><path fill="#fff" d="M88.5,66h-10c-0.276,0-0.5-0.224-0.5-0.5s0.224-0.5,0.5-0.5h10c0.276,0,0.5,0.224,0.5,0.5 S88.776,66,88.5,66z"/><path fill="#fff" d="M92.5,66h-2c-0.276,0-0.5-0.224-0.5-0.5s0.224-0.5,0.5-0.5h2c0.276,0,0.5,0.224,0.5,0.5 S92.776,66,92.5,66z"/><path fill="#fff" d="M97.5,68h-10c-0.276,0-0.5-0.224-0.5-0.5s0.224-0.5,0.5-0.5h10c0.276,0,0.5,0.224,0.5,0.5 S97.777,68,97.5,68z"/><path fill="#fff" d="M85.5,68h-1c-0.276,0-0.5-0.224-0.5-0.5s0.224-0.5,0.5-0.5h1c0.276,0,0.5,0.224,0.5,0.5 S85.776,68,85.5,68z"/><path fill="#fff" d="M82.375,68H80.5c-0.276,0-0.5-0.224-0.5-0.5s0.224-0.5,0.5-0.5h1.875c0.276,0,0.5,0.224,0.5,0.5 S82.651,68,82.375,68z"/><path fill="#fff" d="M91.5,64h-5c-0.276,0-0.5-0.224-0.5-0.5s0.224-0.5,0.5-0.5h5c0.276,0,0.5,0.224,0.5,0.5 S91.777,64,91.5,64z"/><path fill="#fff" d="M88.5,70h-2c-0.276,0-0.5-0.224-0.5-0.5s0.224-0.5,0.5-0.5h2c0.276,0,0.5,0.224,0.5,0.5 S88.776,70,88.5,70z"/><path fill="#355ca8" d="M74.088,49.446l-8.323-4.849v14.17h9.234V51.03C74.999,50.378,74.652,49.775,74.088,49.446z"/><path fill="#2d80d3" d="M36.11,32h12.222v13H36.11V32z"/><path fill="#55a7f9" d="M48.332,32h12.222v12H48.332V32z"/><path fill="#6accff" d="M60.5,32h12.277v12H60.5V32z"/><path fill="#2d80d3" d="M48.332,43.5h12.222l-0.055,11h-12L48.332,43.5z"/><path fill="#0553a4" d="M48.5,54.5h12l0.055,11.389H48.332L48.5,54.5"/><path fill="#4792dd" d="M60.555,43.5h12.222v10.889H60.555V43.5z"/><path fill="#0262b8" d="M60.555,54.5h12.222v11.389H60.555V54.5z"/><path fill="#1e65d6" d="M72.777,32.489H36.11v-2.044c0-1.351,1.094-2.444,2.444-2.444h31.778 c1.351,0,2.444,1.094,2.444,2.444V32.489z"/><path fill="#4792dd" d="M37.5,72.5c0.413,0.321,1.376-0.5,1.941-0.5h14.672h18.333c1.351,0,2.444-1.094,2.444-2.444V51.222 L37.5,72.5z"/><polygon fill="#472b29" points="37.624,72.717 37.376,72.283 74.766,51.005 75.014,51.439"/><path fill="#55a7f9" d="M36.11,51.222v18.333c0,1.351,1.094,2.444,2.444,2.444h18.333h14.672c0.565,0,1.528,0.821,1.941,0.5 L36.11,51.222z"/><path fill="#472b29" d="M72.859,73H38.154c-1.733,0-3.145-1.411-3.145-3.145V30.145c0-1.734,1.411-3.145,3.145-3.145h32.678 c1.733,0,3.145,1.411,3.145,3.145v18.466c1.15,0.225,2.021,1.241,2.022,2.456l0,0C76,51.835,76.008,64.51,76.004,69.863 c-0.001,1.125-0.618,2.17-1.609,2.726c-0.204,0.107-0.322,0.163-0.447,0.209c-0.062,0.022-0.126,0.042-0.192,0.061 c-0.161,0.047-0.239,0.069-0.319,0.084C73.249,72.979,73.058,73,72.859,73z M38.154,28.4c-0.962,0-1.744,0.782-1.744,1.744v39.711 c0,0.962,0.782,1.744,1.744,1.744h34.705c0.108,0,0.214-0.013,0.316-0.032c0.034-0.006,0.067-0.017,0.1-0.027 c0.003,0,0.096-0.027,0.099-0.028c0.157-0.052,0.223-0.084,0.288-0.118c0.606-0.339,0.941-0.902,0.941-1.532 c0.004-5.352-0.004-18.025-0.005-18.793c0,0,0,0,0-0.001c0-0.608-0.494-1.103-1.103-1.103h-0.22c-0.387,0-0.7-0.313-0.7-0.7v-19.12 c0-0.962-0.782-1.744-1.744-1.744H38.154z"/><rect width="37" height=".5" x="36" y="32.25" fill="#472b29"/><rect width="12.5" height=".5" x="60.5" y="43.25" fill="#472b29"/><path fill="#472b29" d="M60.5,39.75c-0.138,0-0.25-0.112-0.25-0.25v-7c0-0.138,0.112-0.25,0.25-0.25s0.25,0.112,0.25,0.25v7 C60.75,39.638,60.638,39.75,60.5,39.75z"/><path fill="#472b29" d="M48.5,43.75c-0.138,0-0.25-0.112-0.25-0.25v-11c0-0.138,0.112-0.25,0.25-0.25s0.25,0.112,0.25,0.25 v11C48.75,43.638,48.638,43.75,48.5,43.75z"/><path fill="#472b29" d="M60.5,59.65c-0.138,0-0.25-0.112-0.25-0.25V41.5c0-0.138,0.112-0.25,0.25-0.25s0.25,0.112,0.25,0.25 v17.9C60.75,59.538,60.638,59.65,60.5,59.65z"/><polygon fill="#472b29" points="73.09,52.4 72.59,52.4 72.59,43.75 48.5,43.75 48.5,43.25 73.09,43.25"/><path fill="#472b29" d="M69.1,54.75H50.5c-0.138,0-0.25-0.112-0.25-0.25s0.112-0.25,0.25-0.25h18.6 c0.138,0,0.25,0.112,0.25,0.25S69.237,54.75,69.1,54.75z"/><path fill="#472b29" d="M63.477,67.046c-0.042,0-0.085-0.011-0.124-0.033L35.986,51.439 c-0.12-0.068-0.161-0.221-0.093-0.341c0.067-0.121,0.22-0.162,0.341-0.094l27.366,15.574c0.119,0.068,0.161,0.221,0.093,0.341 C63.647,67,63.563,67.046,63.477,67.046z"/><path fill="#472b29" d="M66.666,68.861c-0.042,0-0.085-0.011-0.124-0.033l-1.073-0.611c-0.12-0.068-0.161-0.221-0.093-0.341 c0.068-0.121,0.221-0.161,0.341-0.094l1.073,0.611c0.12,0.068,0.161,0.221,0.093,0.341C66.837,68.815,66.753,68.861,66.666,68.861z"/><path fill="#472b29" d="M73.5,72.75c-0.042,0-0.085-0.011-0.124-0.033l-5.006-2.849c-0.119-0.068-0.161-0.221-0.093-0.341 c0.068-0.121,0.22-0.162,0.341-0.094l5.006,2.849c0.119,0.068,0.161,0.221,0.093,0.341C73.671,72.705,73.587,72.75,73.5,72.75z"/><path fill="#2d80d3" d="M46.172,63H25.548c-1.424,0-2.578-1.164-2.578-2.6V39.6c0-1.436,1.154-2.6,2.578-2.6h20.624 c1.424,0,2.578,1.164,2.578,2.6v20.8C48.75,61.836,47.596,63,46.172,63z"/><path fill="#2d80d3" d="M25.548,62c-0.87,0-1.578-0.718-1.578-1.6V39.6c0-0.882,0.708-1.6,1.578-1.6h20.624 c0.87,0,1.578,0.718,1.578,1.6v20.8c0,0.882-0.708,1.6-1.578,1.6H25.548z"/><path fill="#472b29" d="M46.172,38.4c0.65,0,1.178,0.538,1.178,1.2v20.8c0,0.662-0.528,1.2-1.178,1.2H25.548 c-0.65,0-1.178-0.538-1.178-1.2V39.6c0-0.662,0.528-1.2,1.178-1.2H46.172 M46.172,37H25.548c-1.424,0-2.578,1.163-2.578,2.6v20.8 c0,1.437,1.154,2.6,2.578,2.6h20.624c1.424,0,2.578-1.163,2.578-2.6V39.6C48.75,38.163,47.596,37,46.172,37L46.172,37z"/><path fill="#fff" d="M35.86,43.511c-3.802,0-6.093,2.905-6.093,6.489s2.282,6.489,6.093,6.489 c3.812,0,6.093-2.905,6.093-6.488C41.953,46.416,39.662,43.511,35.86,43.511z M35.86,54.299c-2.157,0-3.447-1.924-3.447-4.297 s1.296-4.297,3.447-4.297s3.448,1.925,3.448,4.297S38.016,54.299,35.86,54.299z"/><path fill="#472b29" d="M35.86,56.739c-3.734,0-6.343-2.771-6.343-6.739s2.608-6.739,6.343-6.739s6.343,2.771,6.343,6.74 C42.203,53.968,39.595,56.739,35.86,56.739z M35.86,43.761c-3.44,0-5.843,2.565-5.843,6.239s2.402,6.239,5.843,6.239 s5.843-2.565,5.843-6.237C41.703,46.327,39.301,43.761,35.86,43.761z M35.86,54.548c-2.177,0-3.697-1.87-3.697-4.547 s1.521-4.547,3.697-4.547s3.697,1.87,3.697,4.547S38.037,54.548,35.86,54.548z M35.86,45.954c-1.883,0-3.197,1.665-3.197,4.047 s1.314,4.047,3.197,4.047s3.197-1.664,3.197-4.047S37.743,45.954,35.86,45.954z"/><g><path fill="#fdfcef" d="M38.5,78.5c0,0,1.567,0,3.5,0s3.5-1.567,3.5-3.5c0-1.781-1.335-3.234-3.055-3.455 C42.473,71.366,42.5,71.187,42.5,71c0-1.933-1.567-3.5-3.5-3.5c-1.032,0-1.95,0.455-2.59,1.165 c-0.384-1.808-1.987-3.165-3.91-3.165c-2.209,0-4,1.791-4,4c0,0.191,0.03,0.374,0.056,0.558C28.128,69.714,27.592,69.5,27,69.5 c-1.228,0-2.245,0.887-2.455,2.055C24.366,71.527,24.187,71.5,24,71.5c-1.933,0-3.5,1.567-3.5,3.5s1.567,3.5,3.5,3.5s7.5,0,7.5,0 V79h7V78.5z"/><path fill="#472b29" d="M40.25,74C40.112,74,40,73.888,40,73.75c0-1.223,0.995-2.218,2.218-2.218 c0.034,0.009,0.737-0.001,1.244,0.136c0.133,0.036,0.212,0.173,0.176,0.306c-0.036,0.134-0.173,0.213-0.306,0.176 c-0.444-0.12-1.1-0.12-1.113-0.118c-0.948,0-1.719,0.771-1.719,1.718C40.5,73.888,40.388,74,40.25,74z"/><circle cx="33.5" cy="78.5" r=".5" fill="#472b29"/><path fill="#472b29" d="M42,79h-3.5c-0.276,0-0.5-0.224-0.5-0.5s0.224-0.5,0.5-0.5H42c1.654,0,3-1.346,3-3 c0-1.496-1.125-2.768-2.618-2.959c-0.134-0.018-0.255-0.088-0.336-0.196s-0.115-0.244-0.094-0.377C41.975,71.314,42,71.16,42,71 c0-1.654-1.346-3-3-3c-0.85,0-1.638,0.355-2.219,1c-0.125,0.139-0.321,0.198-0.5,0.148c-0.182-0.049-0.321-0.195-0.36-0.379 C35.58,67.165,34.141,66,32.5,66c-1.93,0-3.5,1.57-3.5,3.5c0,0.143,0.021,0.28,0.041,0.418c0.029,0.203-0.063,0.438-0.242,0.54 c-0.179,0.102-0.396,0.118-0.556-0.01C27.878,70.155,27.449,70,27,70c-0.966,0-1.792,0.691-1.963,1.644 c-0.048,0.267-0.296,0.446-0.569,0.405C24.314,72.025,24.16,72,24,72c-1.654,0-3,1.346-3,3s1.346,3,3,3h7.5 c0.276,0,0.5,0.224,0.5,0.5S31.776,79,31.5,79H24c-2.206,0-4-1.794-4-4s1.794-4,4-4c0.059,0,0.116,0.002,0.174,0.006 C24.588,69.82,25.711,69,27,69c0.349,0,0.689,0.061,1.011,0.18C28.176,66.847,30.126,65,32.5,65c1.831,0,3.466,1.127,4.153,2.774 C37.333,67.276,38.155,67,39,67c2.206,0,4,1.794,4,4c0,0.048-0.001,0.095-0.004,0.142C44.739,71.59,46,73.169,46,75 C46,77.206,44.206,79,42,79z"/><path fill="#472b29" d="M36.5,78c-0.159,0-0.841,0-1,0c-0.276,0-0.5,0.224-0.5,0.5c0,0.276,0.224,0.5,0.5,0.5 c0.159,0,0.841,0,1,0c0.276,0,0.5-0.224,0.5-0.5C37,78.224,36.776,78,36.5,78z"/></g></svg>