<svg xmlns="http://www.w3.org/2000/svg"  viewBox="0 0 100 100" width="100px" height="100px"><path fill="#c7ede6" d="M87.215,56.71C88.35,54.555,89,52.105,89,49.5c0-6.621-4.159-12.257-10.001-14.478 C78.999,35.015,79,35.008,79,35c0-11.598-9.402-21-21-21c-9.784,0-17.981,6.701-20.313,15.757C36.211,29.272,34.638,29,33,29 c-7.692,0-14.023,5.793-14.89,13.252C12.906,43.353,9,47.969,9,53.5C9,59.851,14.149,65,20.5,65c0.177,0,0.352-0.012,0.526-0.022 C21.022,65.153,21,65.324,21,65.5C21,76.822,30.178,86,41.5,86c6.437,0,12.175-2.972,15.934-7.614C59.612,80.611,62.64,82,66,82 c4.65,0,8.674-2.65,10.666-6.518C77.718,75.817,78.837,76,80,76c6.075,0,11-4.925,11-11C91,61.689,89.53,58.727,87.215,56.71z"/><path fill="#fdfcef" d="M80.5,43.5V44h3v-0.5c0,0,0.242,0,1.5,0c2.485,0,4.5-2.015,4.5-4.5c0-2.333-1.782-4.229-4.055-4.455 C85.467,34.364,85.5,34.187,85.5,34c0-2.485-2.015-4.5-4.5-4.5c-1.438,0-2.703,0.686-3.527,1.736 C77.333,28.6,75.171,26.5,72.5,26.5c-2.761,0-5,2.239-5,5c0,0.446,0.077,0.87,0.187,1.282C67.045,32.005,66.086,31.5,65,31.5 c-1.781,0-3.234,1.335-3.455,3.055C61.364,34.533,61.187,34.5,61,34.5c-2.485,0-4.5,2.015-4.5,4.5s2.015,4.5,4.5,4.5s9.5,0,9.5,0 H80.5z"/><path fill="#472b29" d="M72.5,26c-3.033,0-5.5,2.467-5.5,5.5c0,0.016,0,0.031,0,0.047C66.398,31.192,65.71,31,65,31 c-1.831,0-3.411,1.261-3.858,3.005C61.095,34.002,61.048,34,61,34c-2.757,0-5,2.243-5,5s2.243,5,5,5h19.5 c0.276,0,0.5-0.224,0.5-0.5S80.776,43,80.5,43H61c-2.206,0-4-1.794-4-4s1.794-4,4-4c0.117,0,0.23,0.017,0.343,0.032l0.141,0.019 c0.021,0.003,0.041,0.004,0.062,0.004c0.246,0,0.462-0.185,0.495-0.437C62.232,33.125,63.504,32,65,32 c0.885,0,1.723,0.401,2.301,1.1c0.098,0.118,0.241,0.182,0.386,0.182c0.078,0,0.156-0.018,0.228-0.056 c0.209-0.107,0.314-0.346,0.254-0.573C68.054,32.218,68,31.852,68,31.5c0-2.481,2.019-4.5,4.5-4.5c2.381,0,4.347,1.872,4.474,4.263 c0.011,0.208,0.15,0.387,0.349,0.45c0.05,0.016,0.101,0.024,0.152,0.024c0.15,0,0.296-0.069,0.392-0.192 C78.638,30.563,79.779,30,81,30c2.206,0,4,1.794,4,4c0,0.117-0.017,0.23-0.032,0.343l-0.019,0.141 c-0.016,0.134,0.022,0.268,0.106,0.373s0.207,0.172,0.34,0.185C87.451,35.247,89,36.949,89,39c0,2.206-1.794,4-4,4h-1.5 c-0.276,0-0.5,0.224-0.5,0.5s0.224,0.5,0.5,0.5H85c2.757,0,5-2.243,5-5c0-2.397-1.689-4.413-4.003-4.877 C85.999,34.082,86,34.041,86,34c0-2.757-2.243-5-5-5c-1.176,0-2.293,0.416-3.183,1.164C77.219,27.76,75.055,26,72.5,26L72.5,26z"/><path fill="#472b29" d="M84.883,34.5c-1.326,0-2.508,0.897-2.874,2.182c-0.038,0.133,0.039,0.271,0.172,0.309 C82.205,36.997,82.228,37,82.25,37c0.109,0,0.209-0.072,0.24-0.182C82.795,35.748,83.779,35,84.883,35 c0.117,0,0.23,0.014,0.342,0.029c0.012,0.002,0.023,0.003,0.035,0.003c0.121,0,0.229-0.092,0.246-0.217 c0.019-0.137-0.077-0.263-0.214-0.281C85.158,34.516,85.022,34.5,84.883,34.5L84.883,34.5z"/><path fill="#fff" d="M17.79,55.999h-11c-0.276,0-0.5-0.224-0.5-0.5s0.224-0.5,0.5-0.5h11c0.276,0,0.5,0.224,0.5,0.5 S18.067,55.999,17.79,55.999z"/><path fill="#fff" d="M20.781,57.999h-3.99c-0.276,0-0.5-0.224-0.5-0.5s0.224-0.5,0.5-0.5h3.99c0.276,0,0.5,0.224,0.5,0.5 S21.057,57.999,20.781,57.999z"/><path fill="#fff" d="M14.79,57.999h-7c-0.276,0-0.5-0.224-0.5-0.5s0.224-0.5,0.5-0.5h7c0.276,0,0.5,0.224,0.5,0.5 S15.067,57.999,14.79,57.999z"/><path fill="#fff" d="M14.79,59.999h-5c-0.276,0-0.5-0.224-0.5-0.5s0.224-0.5,0.5-0.5h5c0.276,0,0.5,0.224,0.5,0.5 S15.066,59.999,14.79,59.999z"/><path fill="#fff" d="M19.79,52.999c-0.177,0-5.823,0-6,0c-0.276,0-0.5,0.224-0.5,0.5s0.224,0.5,0.5,0.5 c0.177,0,5.823,0,6,0c0.276,0,0.5-0.224,0.5-0.5S20.066,52.999,19.79,52.999z"/><path fill="#fff" d="M23.79,54.999c-0.177,0-3.073,0-3.249,0c-0.276,0-0.5,0.224-0.5,0.5s0.224,0.5,0.5,0.5 c0.177,0,3.073,0,3.249,0c0.276,0,0.5-0.224,0.5-0.5S24.066,54.999,23.79,54.999z"/><path fill="#fff" d="M64,19h-6c-0.276,0-0.5-0.224-0.5-0.5S57.724,18,58,18h6c0.276,0,0.5,0.224,0.5,0.5S64.276,19,64,19 z"/><path fill="#fff" d="M72,19h-6c-0.276,0-0.5-0.224-0.5-0.5S65.724,18,66,18h6c0.276,0,0.5,0.224,0.5,0.5S72.276,19,72,19 z"/><path fill="#fff" d="M74,21h-7c-0.276,0-0.5-0.224-0.5-0.5S66.724,20,67,20h7c0.276,0,0.5,0.224,0.5,0.5S74.277,21,74,21 z"/><path fill="#fff" d="M65,21h-1c-0.276,0-0.5-0.224-0.5-0.5S63.724,20,64,20h1c0.276,0,0.5,0.224,0.5,0.5S65.276,21,65,21 z"/><path fill="#fff" d="M61.97,21H60c-0.276,0-0.5-0.224-0.5-0.5S59.724,20,60,20h1.97c0.276,0,0.5,0.224,0.5,0.5 S62.246,21,61.97,21z"/><path fill="#fff" d="M70,17h-8c-0.276,0-0.5-0.224-0.5-0.5S61.724,16,62,16h8c0.276,0,0.5,0.224,0.5,0.5S70.277,17,70,17 z"/><path fill="#fff" d="M68,23h-2c-0.276,0-0.5-0.224-0.5-0.5S65.724,22,66,22h2c0.276,0,0.5,0.224,0.5,0.5S68.276,23,68,23 z"/><circle cx="52" cy="50" r="23" fill="#ae5ca3"/><path fill="#472b29" d="M52,27.4c12.461,0,22.6,10.138,22.6,22.599C74.6,62.461,64.461,72.6,52,72.6S29.4,62.462,29.4,50 S39.538,27.4,52,27.4 M52,26c-13.234,0-24,10.766-24,24s10.765,24,24,24s24-10.767,24-24.001S65.234,26,52,26L52,26z"/><path fill="#472b29" d="M42.622,67.665c-9.74-5.171-13.458-17.303-8.287-27.043c0.559-1.053,1.247-2.095,2.045-3.097 c0.129-0.162,0.362-0.192,0.528-0.06c0.162,0.129,0.189,0.365,0.06,0.528c-0.77,0.966-1.432,1.968-1.97,2.98 c-4.977,9.375-1.399,21.052,7.976,26.029s21.052,1.399,26.029-7.976s1.399-21.052-7.976-26.029 c-5.282-2.804-11.457-2.996-16.94-0.524c-0.188,0.085-0.411,0.002-0.496-0.188c-0.085-0.189-0.001-0.41,0.188-0.496 c5.695-2.567,12.11-2.368,17.599,0.546c9.74,5.171,13.458,17.303,8.287,27.043C64.494,69.119,52.362,72.836,42.622,67.665z"/><path fill="#472b29" d="M37.946,36.453c-0.032-0.017-0.062-0.039-0.088-0.066c-0.147-0.146-0.147-0.384,0-0.53 c0.541-0.541,1.144-1.07,1.846-1.617c0.164-0.127,0.399-0.097,0.527,0.066s0.097,0.399-0.066,0.527 c-0.677,0.527-1.257,1.035-1.776,1.555C38.268,36.507,38.088,36.529,37.946,36.453z"/><path fill="#fdfcef" d="M35.5,71.382c0,0,1.567,0,3.5,0s3.5-1.567,3.5-3.5c0-1.781-1.335-3.234-3.055-3.455 c0.028-0.179,0.055-0.358,0.055-0.545c0-1.933-1.567-3.5-3.5-3.5c-1.032,0-1.95,0.455-2.59,1.165 c-0.384-1.808-1.987-3.165-3.91-3.165c-2.209,0-4,1.791-4,4c0,0.191,0.03,0.374,0.056,0.558c-0.428-0.344-0.965-0.558-1.556-0.558 c-1.228,0-2.245,0.887-2.455,2.055c-0.179-0.028-0.358-0.055-0.545-0.055c-1.933,0-3.5,1.567-3.5,3.5s1.567,3.5,3.5,3.5 s7.5,0,7.5,0v0.5h7V71.382z"/><path fill="#472b29" d="M37.25,66.882c-0.138,0-0.25-0.112-0.25-0.25c0-1.223,0.995-2.218,2.218-2.218 c0.034,0.009,0.737-0.001,1.244,0.136c0.133,0.036,0.212,0.173,0.176,0.306c-0.036,0.134-0.173,0.213-0.306,0.176 c-0.444-0.12-1.1-0.12-1.113-0.118c-0.948,0-1.719,0.771-1.719,1.718C37.5,66.77,37.389,66.882,37.25,66.882z"/><circle cx="30.5" cy="71.382" r=".5" fill="#472b29"/><path fill="#472b29" d="M39,71.882h-3.5c-0.276,0-0.5-0.224-0.5-0.5s0.224-0.5,0.5-0.5H39c1.654,0,3-1.346,3-3 c0-1.496-1.125-2.768-2.618-2.959c-0.134-0.018-0.255-0.088-0.336-0.196s-0.115-0.244-0.094-0.377 C38.975,64.196,39,64.042,39,63.882c0-1.654-1.346-3-3-3c-0.85,0-1.638,0.355-2.219,1c-0.125,0.139-0.321,0.198-0.5,0.148 c-0.182-0.049-0.321-0.195-0.36-0.379c-0.341-1.604-1.779-2.769-3.42-2.769c-1.93,0-3.5,1.57-3.5,3.5 c0,0.143,0.021,0.28,0.041,0.418c0.029,0.203-0.063,0.438-0.242,0.54s-0.396,0.118-0.556-0.01 c-0.365-0.293-0.794-0.448-1.243-0.448c-0.966,0-1.792,0.691-1.963,1.644c-0.048,0.267-0.296,0.446-0.569,0.405 c-0.153-0.024-0.308-0.049-0.468-0.049c-1.654,0-3,1.346-3,3s1.346,3,3,3h7.5c0.276,0,0.5,0.224,0.5,0.5s-0.224,0.5-0.5,0.5H21 c-2.206,0-4-1.794-4-4s1.794-4,4-4c0.059,0,0.116,0.002,0.174,0.006c0.414-1.186,1.537-2.006,2.826-2.006 c0.349,0,0.689,0.061,1.011,0.18c0.165-2.333,2.115-4.18,4.489-4.18c1.831,0,3.466,1.127,4.153,2.774 c0.68-0.499,1.502-0.774,2.347-0.774c2.206,0,4,1.794,4,4c0,0.048-0.001,0.095-0.004,0.142C41.739,64.472,43,66.051,43,67.882 C43,70.087,41.206,71.882,39,71.882z"/><path fill="#472b29" d="M33.5,70.882c-0.159,0-0.841,0-1,0c-0.276,0-0.5,0.224-0.5,0.5s0.224,0.5,0.5,0.5 c0.159,0,0.841,0,1,0c0.276,0,0.5-0.224,0.5-0.5S33.777,70.882,33.5,70.882z"/><path fill="#fdfcef" d="M37.5,41.5v2h4l7,8v5c0,0.552-0.448,1-1,1h-2l-1,2h13v-2h-4v-6l6.438-5.519 C60.3,45.67,60.762,45.5,61.24,45.5h2.26l1-2h-11l0.62,2h3.38L52,50.197L46.5,43.5h4v-2H37.5z"/><polygon fill="#fdfcef" points="62.5,47.5 62.5,55.194 64.5,55.5 66.5,47.5"/><polygon fill="#fdfcef" points="62.5,56.764 62.5,58.736 64.5,59 64.5,57"/><path fill="#472b29" d="M57.5,59.75h-13c-0.086,0-0.167-0.045-0.213-0.118c-0.045-0.074-0.049-0.166-0.011-0.243l1-2 c0.042-0.085,0.129-0.139,0.224-0.139h2c0.414,0,0.75-0.337,0.75-0.75v-4.906l-6.863-7.844H37.5c-0.138,0-0.25-0.112-0.25-0.25v-2 c0-0.138,0.112-0.25,0.25-0.25h13c0.138,0,0.25,0.112,0.25,0.25v2c0,0.138-0.112,0.25-0.25,0.25h-3.471l5.002,6.091l4.791-4.091 H54.12c-0.109,0-0.206-0.071-0.239-0.176l-0.62-2c-0.023-0.076-0.009-0.159,0.038-0.223s0.122-0.102,0.201-0.102h11 c0.087,0,0.167,0.045,0.213,0.119c0.045,0.074,0.05,0.166,0.011,0.243l-1,2c-0.042,0.084-0.129,0.138-0.224,0.138h-2.26 c-0.419,0-0.823,0.149-1.139,0.42l-6.352,5.445v5.635h3.75c0.138,0,0.25,0.112,0.25,0.25v2C57.75,59.638,57.638,59.75,57.5,59.75z M44.904,59.25H57.25v-1.5H53.5c-0.138,0-0.25-0.112-0.25-0.25v-6c0-0.073,0.032-0.143,0.087-0.189l6.438-5.52 c0.405-0.349,0.926-0.541,1.465-0.541h2.105l0.75-1.5H53.839l0.466,1.5H57.5c0.104,0,0.198,0.065,0.234,0.164 s0.008,0.208-0.072,0.276l-5.5,4.697c-0.051,0.044-0.119,0.061-0.185,0.059c-0.066-0.006-0.128-0.039-0.171-0.09l-5.5-6.697 c-0.061-0.075-0.074-0.178-0.033-0.266s0.129-0.143,0.226-0.143h3.75v-1.5h-12.5v1.5h3.75c0.072,0,0.141,0.031,0.188,0.085l7,8 c0.04,0.046,0.062,0.104,0.062,0.165v5c0,0.689-0.561,1.25-1.25,1.25h-1.846L44.904,59.25z"/><path fill="#472b29" d="M64.5,55.75c-0.013,0-0.025-0.001-0.038-0.003l-2-0.306c-0.122-0.019-0.212-0.124-0.212-0.247V47.5 c0-0.138,0.112-0.25,0.25-0.25h4c0.077,0,0.149,0.036,0.197,0.096c0.047,0.061,0.063,0.14,0.045,0.214l-2,8 C64.715,55.673,64.613,55.75,64.5,55.75z M62.75,54.979l1.562,0.239l1.867-7.469h-3.43V54.979z"/><path fill="#472b29" d="M64.5,59.25c-0.011,0-0.021-0.001-0.032-0.002l-2-0.264c-0.125-0.017-0.218-0.123-0.218-0.248 v-1.973c0-0.071,0.03-0.14,0.084-0.187c0.054-0.048,0.124-0.067,0.195-0.062l2,0.236c0.126,0.015,0.221,0.121,0.221,0.248v2 c0,0.072-0.031,0.141-0.085,0.188C64.619,59.229,64.561,59.25,64.5,59.25z M62.75,58.518l1.5,0.197v-1.492l-1.5-0.178V58.518z"/></svg>